<mxfile host="app.diagrams.net" modified="2021-04-22T10:08:36.985Z" agent="5.0 (Windows)" etag="YLBKmcxaCymw3PatR8f4" version="14.4.9" type="github">
  <diagram id="C5RBs43oDa-KdzZeNtuy" name="Page-1">
    <mxGraphModel dx="835" dy="569" grid="1" gridSize="10" guides="1" tooltips="1" connect="1" arrows="1" fold="1" page="1" pageScale="1" pageWidth="827" pageHeight="1169" math="0" shadow="0">
      <root>
        <mxCell id="WIyWlLk6GJQsqaUBKTNV-0" />
        <mxCell id="WIyWlLk6GJQsqaUBKTNV-1" parent="WIyWlLk6GJQsqaUBKTNV-0" />
        <mxCell id="xDoAu2jg7uCX6hXLonLB-15" value="&lt;font style=&quot;font-size: 18px&quot;&gt;util&lt;/font&gt;" style="rounded=0;whiteSpace=wrap;html=1;fillColor=none;align=left;verticalAlign=top;" vertex="1" parent="WIyWlLk6GJQsqaUBKTNV-1">
          <mxGeometry x="80" y="30" width="230" height="120" as="geometry" />
        </mxCell>
        <mxCell id="xDoAu2jg7uCX6hXLonLB-0" value="database_connection" style="swimlane;fontStyle=0;align=center;verticalAlign=top;childLayout=stackLayout;horizontal=1;startSize=26;horizontalStack=0;resizeParent=1;resizeParentMax=0;resizeLast=0;collapsible=1;marginBottom=0;direction=east;" vertex="1" collapsed="1" parent="WIyWlLk6GJQsqaUBKTNV-1">
          <mxGeometry x="115" y="70" width="160" height="30" as="geometry">
            <mxRectangle x="100" y="110" width="160" height="112" as="alternateBounds" />
          </mxGeometry>
        </mxCell>
        <mxCell id="xDoAu2jg7uCX6hXLonLB-1" value="+ field: db_connection" style="text;strokeColor=none;fillColor=none;align=left;verticalAlign=top;spacingLeft=4;spacingRight=4;overflow=hidden;rotatable=0;points=[[0,0.5],[1,0.5]];portConstraint=eastwest;" vertex="1" parent="xDoAu2jg7uCX6hXLonLB-0">
          <mxGeometry y="26" width="160" height="26" as="geometry" />
        </mxCell>
        <mxCell id="xDoAu2jg7uCX6hXLonLB-2" value="+ field: engine" style="text;strokeColor=none;fillColor=none;align=left;verticalAlign=top;spacingLeft=4;spacingRight=4;overflow=hidden;rotatable=0;points=[[0,0.5],[1,0.5]];portConstraint=eastwest;" vertex="1" parent="xDoAu2jg7uCX6hXLonLB-0">
          <mxGeometry y="52" width="160" height="26" as="geometry" />
        </mxCell>
        <mxCell id="xDoAu2jg7uCX6hXLonLB-3" value="" style="line;strokeWidth=1;fillColor=none;align=left;verticalAlign=middle;spacingTop=-1;spacingLeft=3;spacingRight=3;rotatable=0;labelPosition=right;points=[];portConstraint=eastwest;" vertex="1" parent="xDoAu2jg7uCX6hXLonLB-0">
          <mxGeometry y="78" width="160" height="8" as="geometry" />
        </mxCell>
        <mxCell id="xDoAu2jg7uCX6hXLonLB-4" value="+ import_df(self,dataframe,name):" style="text;strokeColor=none;fillColor=none;align=left;verticalAlign=top;spacingLeft=4;spacingRight=4;overflow=hidden;rotatable=0;points=[[0,0.5],[1,0.5]];portConstraint=eastwest;" vertex="1" parent="xDoAu2jg7uCX6hXLonLB-0">
          <mxGeometry y="86" width="160" height="26" as="geometry" />
        </mxCell>
        <mxCell id="xDoAu2jg7uCX6hXLonLB-5" value="main.py" style="html=1;" vertex="1" parent="WIyWlLk6GJQsqaUBKTNV-1">
          <mxGeometry x="80" y="340" width="110" height="50" as="geometry" />
        </mxCell>
        <mxCell id="xDoAu2jg7uCX6hXLonLB-8" style="edgeStyle=orthogonalEdgeStyle;rounded=0;orthogonalLoop=1;jettySize=auto;html=1;exitX=0.5;exitY=1;exitDx=0;exitDy=0;entryX=0.5;entryY=0;entryDx=0;entryDy=0;endArrow=none;endFill=0;" edge="1" parent="WIyWlLk6GJQsqaUBKTNV-1" source="xDoAu2jg7uCX6hXLonLB-9" target="xDoAu2jg7uCX6hXLonLB-5">
          <mxGeometry relative="1" as="geometry" />
        </mxCell>
        <mxCell id="xDoAu2jg7uCX6hXLonLB-9" value="sanelib.py" style="swimlane;fontStyle=1;align=center;verticalAlign=top;childLayout=stackLayout;horizontal=1;startSize=26;horizontalStack=0;resizeParent=1;resizeParentMax=0;resizeLast=0;collapsible=1;marginBottom=0;direction=east;" vertex="1" collapsed="1" parent="WIyWlLk6GJQsqaUBKTNV-1">
          <mxGeometry x="82.5" y="260" width="105" height="26" as="geometry">
            <mxRectangle x="135" y="320" width="160" height="86" as="alternateBounds" />
          </mxGeometry>
        </mxCell>
        <mxCell id="xDoAu2jg7uCX6hXLonLB-10" value="+ field: dtc" style="text;strokeColor=none;fillColor=none;align=left;verticalAlign=top;spacingLeft=4;spacingRight=4;overflow=hidden;rotatable=0;points=[[0,0.5],[1,0.5]];portConstraint=eastwest;" vertex="1" parent="xDoAu2jg7uCX6hXLonLB-9">
          <mxGeometry y="26" width="105" height="26" as="geometry" />
        </mxCell>
        <mxCell id="xDoAu2jg7uCX6hXLonLB-11" value="+ field: mdh" style="text;strokeColor=none;fillColor=none;align=left;verticalAlign=top;spacingLeft=4;spacingRight=4;overflow=hidden;rotatable=0;points=[[0,0.5],[1,0.5]];portConstraint=eastwest;" vertex="1" parent="xDoAu2jg7uCX6hXLonLB-9">
          <mxGeometry y="52" width="105" height="26" as="geometry" />
        </mxCell>
        <mxCell id="xDoAu2jg7uCX6hXLonLB-12" value="" style="line;strokeWidth=1;fillColor=none;align=left;verticalAlign=middle;spacingTop=-1;spacingLeft=3;spacingRight=3;rotatable=0;labelPosition=right;points=[];portConstraint=eastwest;" vertex="1" parent="xDoAu2jg7uCX6hXLonLB-9">
          <mxGeometry y="78" width="105" height="8" as="geometry" />
        </mxCell>
        <mxCell id="xDoAu2jg7uCX6hXLonLB-21" value="timer" style="swimlane;fontStyle=0;childLayout=stackLayout;horizontal=1;startSize=28;fillColor=none;horizontalStack=0;resizeParent=1;resizeParentMax=0;resizeLast=0;collapsible=1;marginBottom=0;" vertex="1" collapsed="1" parent="WIyWlLk6GJQsqaUBKTNV-1">
          <mxGeometry x="115" y="110" width="60" height="28" as="geometry">
            <mxRectangle x="350" y="270" width="60" height="52" as="alternateBounds" />
          </mxGeometry>
        </mxCell>
        <mxCell id="xDoAu2jg7uCX6hXLonLB-26" style="edgeStyle=orthogonalEdgeStyle;rounded=0;orthogonalLoop=1;jettySize=auto;html=1;endArrow=none;endFill=0;" edge="1" parent="WIyWlLk6GJQsqaUBKTNV-1" source="xDoAu2jg7uCX6hXLonLB-25" target="xDoAu2jg7uCX6hXLonLB-9">
          <mxGeometry relative="1" as="geometry" />
        </mxCell>
        <mxCell id="xDoAu2jg7uCX6hXLonLB-25" value="config.py" style="html=1;" vertex="1" parent="WIyWlLk6GJQsqaUBKTNV-1">
          <mxGeometry x="80" y="170" width="110" height="50" as="geometry" />
        </mxCell>
        <mxCell id="xDoAu2jg7uCX6hXLonLB-27" value="&lt;font style=&quot;font-size: 18px&quot;&gt;lib&lt;/font&gt;" style="rounded=0;whiteSpace=wrap;html=1;fillColor=none;align=left;verticalAlign=top;fontStyle=0;fontSize=14;" vertex="1" parent="WIyWlLk6GJQsqaUBKTNV-1">
          <mxGeometry x="380" y="30" width="420" height="450" as="geometry" />
        </mxCell>
        <mxCell id="xDoAu2jg7uCX6hXLonLB-28" value="dtc" style="rounded=0;whiteSpace=wrap;html=1;fillColor=none;align=left;verticalAlign=top;fontStyle=0;fontSize=14;" vertex="1" parent="WIyWlLk6GJQsqaUBKTNV-1">
          <mxGeometry x="410" y="80" width="370" height="140" as="geometry" />
        </mxCell>
        <mxCell id="xDoAu2jg7uCX6hXLonLB-29" value="mdh" style="rounded=0;whiteSpace=wrap;html=1;fillColor=none;align=left;verticalAlign=top;fontStyle=0;fontSize=14;" vertex="1" parent="WIyWlLk6GJQsqaUBKTNV-1">
          <mxGeometry x="410" y="240" width="370" height="140" as="geometry" />
        </mxCell>
        <mxCell id="xDoAu2jg7uCX6hXLonLB-30" value="linreg, kmeans..." style="rounded=0;whiteSpace=wrap;html=1;fillColor=none;align=left;verticalAlign=top;fontStyle=0;fontSize=14;" vertex="1" parent="WIyWlLk6GJQsqaUBKTNV-1">
          <mxGeometry x="410" y="400" width="370" height="50" as="geometry" />
        </mxCell>
      </root>
    </mxGraphModel>
  </diagram>
</mxfile>
